<svg version="1.1" id="Layer_1" xmlns="http://www.w3.org/2000/svg" xmlns:xlink="http://www.w3.org/1999/xlink" x="0px" y="0px"
	 width="100%" viewBox="0 0 1000 1000" enable-background="new 0 0 1000 1000" xml:space="preserve">
<path fill="#EFEDE5" opacity="1.000000" stroke="none" 
	d="
M1001.000000,893.532410 
	C991.604919,894.598511 982.209473,895.670593 972.814758,895.664612 
	C963.071533,895.658447 953.283325,895.009216 943.598511,893.906067 
	C933.033325,892.702576 922.374451,891.413696 912.088135,888.837402 
	C877.602722,880.200317 848.177368,862.776184 823.855713,836.692444 
	C799.205017,810.255737 783.720215,779.176941 775.922241,744.065857 
	C775.638611,742.788879 775.123291,741.563293 774.785339,740.526489 
	C764.153503,746.947632 753.427795,753.425415 742.310059,759.595459 
	C738.678650,755.425293 735.358765,751.626587 732.229736,747.676697 
	C730.335449,745.285400 728.736877,742.659973 727.005432,740.139709 
	C741.064575,731.927979 754.631653,723.018738 766.260132,711.506287 
	C767.706360,710.074524 769.009277,707.682983 769.015381,705.731812 
	C769.139038,666.412598 769.228088,627.091553 768.950012,587.773560 
	C768.829712,570.766113 757.367126,562.915771 743.420166,561.045959 
	C737.550903,560.259155 731.595215,560.116943 725.330322,559.656067 
	C725.330322,557.785522 725.330322,555.713562 725.330322,553.316528 
	C768.841492,553.316528 812.578064,553.316528 856.659302,553.316528 
	C856.659302,555.191223 856.659302,557.257324 856.659302,559.381042 
	C849.445068,560.227966 841.913025,560.714172 834.540894,562.069885 
	C823.164673,564.161865 813.951782,572.528809 813.957886,586.408325 
	C813.974854,624.894897 812.770569,663.430359 814.321777,701.854797 
	C815.995911,743.326477 826.075378,782.750061 852.317932,816.421570 
	C869.108887,837.965698 890.813416,852.864319 915.993408,862.859436 
	C932.035034,869.227051 948.729858,873.307678 965.910034,874.951172 
	C977.256958,876.036621 988.676331,876.364624 1000.531616,877.015869 
	C1001.000000,882.354919 1001.000000,887.709900 1001.000000,893.532410 
z"/>
<path fill="#F0EEE6" opacity="1.000000" stroke="none" 
	d="
M684.225159,781.082581 
	C713.065369,795.412109 743.118652,801.355774 775.000977,794.036804 
	C777.468689,801.397339 777.196899,801.814331 770.671936,803.853943 
	C747.070923,811.231506 722.877563,814.466492 698.260864,812.804443 
	C677.302490,811.389282 657.884216,804.278992 639.587830,794.055908 
	C635.707886,791.887939 631.708923,789.932922 627.333984,787.473999 
	C621.727966,783.258362 616.519409,779.492981 611.388062,775.625061 
	C607.219177,772.482666 603.143250,769.217102 598.959839,765.672485 
	C589.534546,755.751038 580.191528,746.147522 570.794922,736.596680 
	C569.690613,735.474182 568.291443,734.641724 567.037598,733.326660 
	C565.238037,730.607483 563.429871,728.236511 561.501953,725.575195 
	C551.146606,709.893127 540.656921,694.662231 530.772278,679.048279 
	C525.000366,669.930908 520.195435,660.201355 515.007935,650.386169 
	C511.782776,642.775696 508.127777,635.670349 505.295074,628.251038 
	C495.058960,601.441040 485.136383,574.511475 475.003845,547.661621 
	C472.998810,542.348572 470.587921,537.188599 468.281372,531.551147 
	C468.143585,530.314941 468.263611,529.426819 468.007751,528.664917 
	C462.973022,513.672363 457.930359,498.682007 452.739441,483.743286 
	C452.416931,482.815186 450.860657,481.710266 449.877563,481.709473 
	C437.920135,481.699860 425.962616,481.882080 413.709229,481.724030 
	C408.946259,481.321075 404.479218,481.208588 399.543335,481.072632 
	C391.059692,481.055695 383.044861,481.062225 374.576416,481.050476 
	C370.754608,481.336884 367.386444,481.641571 364.018280,481.946259 
	C329.707123,481.914429 295.395721,481.934570 261.085236,481.765625 
	C257.865265,481.749786 257.320709,483.586548 256.469940,485.782104 
	C245.672852,513.646240 234.769867,541.469604 224.057526,569.366211 
	C218.125351,584.814514 211.955673,600.205139 206.882858,615.940796 
	C201.376099,633.022522 215.565872,651.776855 231.895432,651.168457 
	C235.108826,651.048767 238.360184,651.948792 241.775955,652.402710 
	C241.775955,654.694092 241.775955,656.968872 241.775955,659.915710 
	C239.935928,659.915710 238.169281,659.915344 236.402618,659.915771 
	C192.591187,659.927185 148.779755,659.938049 104.968330,659.950745 
	C98.082565,659.952759 98.082565,659.956848 98.484726,652.479248 
	C104.747353,651.707214 111.123779,651.277222 117.353981,650.083862 
	C133.680252,646.956421 146.081314,637.604248 156.308014,624.880676 
	C166.300613,612.448364 170.841415,597.338928 176.861954,583.014099 
	C203.767105,518.997742 230.367203,454.853180 257.099487,390.764130 
	C275.396301,346.898682 293.729370,303.048431 312.367981,258.566925 
	C315.781525,250.601303 318.873352,243.260147 321.965210,235.918976 
	C327.910797,221.649582 333.810730,207.360809 339.847168,193.129929 
	C340.846252,190.774551 340.736572,189.195847 339.099152,187.006454 
	C323.311920,165.897629 304.498138,148.846970 278.771332,140.694336 
	C261.123474,135.101868 243.216904,134.163666 225.171387,137.984421 
	C214.887024,140.161911 204.771332,143.133972 194.570557,145.712036 
	C193.637375,145.947861 192.637421,145.919525 191.491608,146.031052 
	C190.678711,143.522614 189.896576,141.109116 189.113571,138.692902 
	C206.276917,131.002396 224.123138,125.320229 242.616959,122.463348 
	C256.243042,120.358421 270.206818,118.880600 283.936829,119.386200 
	C302.786407,120.080330 320.161255,126.936951 336.767120,136.026810 
	C359.623840,148.538330 376.245453,167.227539 389.645874,188.830048 
	C398.907532,203.760513 406.470276,219.744812 414.940308,235.967361 
	C418.096191,243.795685 421.103973,250.914825 424.151306,258.393494 
	C425.776001,262.726196 427.478943,266.657013 428.927185,270.679565 
	C437.971832,295.801147 446.959564,320.943176 455.952698,346.458130 
	C459.629791,357.553131 463.320312,368.268433 467.048737,379.348083 
	C470.209076,388.114288 473.452942,396.473328 476.432434,404.925537 
	C487.974426,437.667877 499.403381,470.450104 511.012299,503.168549 
	C511.554840,504.697540 513.424072,505.755829 514.675415,507.033325 
	C515.756958,511.990204 516.363281,517.109558 517.994080,521.878601 
	C532.975769,565.691406 549.188232,609.036072 571.040894,649.975525 
	C590.629639,686.673706 613.474304,721.190308 642.701294,751.079407 
	C647.402649,755.887207 653.078186,759.742554 658.700806,764.414429 
	C666.187927,772.204590 674.879639,777.147827 684.225159,781.082581 
M365.925446,235.259399 
	C363.830200,230.815536 361.734924,226.371674 359.040863,220.657791 
	C357.041046,226.598358 355.453766,231.313507 353.322144,236.440323 
	C350.544525,243.618454 347.766907,250.796585 344.621948,258.602966 
	C318.449371,325.645721 292.276764,392.688446 266.000183,459.997620 
	C301.011902,459.997620 335.503326,459.997620 370.931824,460.047272 
	C383.960480,460.008606 396.989105,459.969971 410.933350,459.970734 
	C414.316254,459.966675 417.699127,459.962646 422.008179,459.998444 
	C429.375366,459.998444 436.742523,459.998444 444.606567,459.998444 
	C441.261688,449.672485 438.096405,439.901001 434.948669,429.372986 
	C429.950256,415.022034 425.000336,400.653717 419.886841,386.343903 
	C419.302582,384.708923 417.802338,383.401306 417.069000,381.161652 
	C416.804474,379.588654 416.746521,377.946198 416.244415,376.453094 
	C408.895294,354.599823 401.617371,332.721161 394.051666,310.942657 
	C387.893982,293.217316 381.374634,275.617615 375.009430,257.202728 
	C371.986145,250.129837 368.962860,243.056946 365.925446,235.259399 
z"/>
<path fill="#F0EEE6" opacity="1.000000" stroke="none" 
	d="
M500.004333,236.181122 
	C539.305298,236.121216 578.617371,236.610535 617.903259,235.810013 
	C644.488892,235.268265 670.777527,231.314835 697.044189,223.113358 
	C697.044189,251.080856 697.044189,278.926971 697.054199,307.656311 
	C696.855774,310.521942 697.475037,313.544678 694.169312,312.764648 
	C692.549133,312.382324 691.197327,310.224579 690.071106,308.625854 
	C689.398132,307.670563 689.397034,306.241943 689.097900,304.560364 
	C689.034729,300.267456 689.536987,296.327484 688.805359,292.631775 
	C684.882996,272.819550 666.569763,258.006958 646.350220,257.998230 
	C604.215088,257.980072 562.080017,257.985687 519.944885,257.981567 
	C518.345276,257.981415 516.745605,257.981537 514.764160,257.981537 
	C514.764160,262.378845 514.764160,266.187134 514.410767,269.981110 
	C512.482117,267.826569 510.511200,265.871552 509.406281,263.511108 
	C506.202240,256.666260 503.197723,249.716476 500.449707,242.677170 
	C499.696564,240.747879 500.120514,238.359055 500.004333,236.181122 
z"/>
<path fill="#DDDCD4" opacity="1.000000" stroke="none" 
	d="
M363.993622,482.343750 
	C367.386444,481.641571 370.754608,481.336884 374.567810,481.449951 
	C377.231018,489.249146 379.032532,496.790039 381.780670,503.968536 
	C384.718445,511.642395 388.523560,518.986328 391.996918,526.452454 
	C395.843018,534.719727 399.640106,543.013367 403.722260,551.163513 
	C404.374939,552.466675 406.407959,553.078369 407.881378,554.439819 
	C408.974762,566.581360 409.520874,578.358826 411.157410,589.982727 
	C412.398438,598.797180 413.995087,607.827026 417.258392,616.035522 
	C423.850494,632.617554 431.683441,648.706299 438.725525,665.296570 
	C438.313934,668.062012 437.679932,670.626587 438.136078,672.979797 
	C440.084381,683.030701 441.996948,693.115845 444.665955,702.987488 
	C445.903687,707.565369 448.842224,711.683289 450.851593,716.312500 
	C446.128906,719.076782 441.564362,721.538391 436.999786,723.999939 
	C433.625580,720.476868 430.251373,716.953796 426.834137,712.700806 
	C426.837677,711.474854 426.985962,710.963928 426.916046,710.484863 
	C424.915161,696.774170 422.852264,683.072327 420.886322,669.356628 
	C419.410980,659.063904 418.576630,648.648315 416.516266,638.478027 
	C413.894867,625.538391 410.417542,612.767212 407.141235,599.966370 
	C401.592834,578.288147 390.756165,559.161133 378.245056,540.877625 
	C376.015930,537.620056 373.178375,534.735352 371.256256,531.321228 
	C368.283844,526.041565 363.831024,523.626343 358.084198,523.003723 
	C358.011475,509.285583 360.607300,495.957458 363.993622,482.343750 
z"/>
<path fill="#D4D2CB" opacity="1.000000" stroke="none" 
	d="
M599.026062,766.006165 
	C603.143250,769.217102 607.219177,772.482666 611.388062,775.625061 
	C616.519409,779.492981 621.727966,783.258362 626.972168,787.386719 
	C608.429626,788.505798 590.011475,786.874817 571.582947,784.198547 
	C547.803589,780.745239 525.026062,774.091187 503.047577,764.588074 
	C484.640564,756.629395 467.397217,746.591736 451.618713,734.280151 
	C464.935791,733.952820 477.944366,733.940491 491.383606,733.948975 
	C496.532318,733.950623 501.250366,733.931458 505.991028,734.267090 
	C512.283020,738.273682 518.387634,742.251221 524.851318,745.518616 
	C548.179993,757.311157 572.931091,764.137085 599.026062,766.006165 
z"/>
<path fill="#EEECE4" opacity="1.000000" stroke="none" 
	d="
M727.012085,316.954620 
	C742.206482,324.046265 757.240540,331.514252 772.656799,338.085419 
	C781.599365,341.897247 783.108276,348.818542 784.099976,357.161804 
	C786.479919,377.183929 789.451233,397.136139 792.227539,417.110504 
	C793.260864,424.544861 794.415894,431.962311 795.492554,439.233032 
	C789.836975,441.419800 788.174500,438.788940 787.063232,434.519104 
	C779.710510,406.269226 765.910156,381.728333 744.357361,361.845154 
	C734.213989,352.487488 722.879639,344.762634 710.156372,338.289307 
	C712.654541,334.620605 715.419312,331.614807 718.001831,328.459930 
	C721.086670,324.691498 724.015625,320.795410 727.012085,316.954620 
z"/>
<path fill="#E4E2DA" opacity="1.000000" stroke="none" 
	d="
M357.875183,523.366699 
	C363.831024,523.626343 368.283844,526.041565 371.256256,531.321228 
	C373.178375,534.735352 376.015930,537.620056 378.245056,540.877625 
	C390.756165,559.161133 401.592834,578.288147 407.141235,599.966370 
	C410.417542,612.767212 413.894867,625.538391 416.516266,638.478027 
	C418.576630,648.648315 419.410980,659.063904 420.886322,669.356628 
	C422.852264,683.072327 424.915161,696.774170 426.916046,710.484863 
	C426.985962,710.963928 426.837677,711.474854 426.680481,712.431519 
	C419.098877,704.484314 411.627930,696.076477 404.440857,687.244263 
	C405.136932,686.161316 405.938202,685.480042 405.901428,684.847534 
	C405.517792,678.247498 405.398376,671.596313 404.433838,665.073486 
	C402.552551,652.351379 399.074493,639.764648 398.352966,627.003357 
	C397.766815,616.636475 393.892822,607.464111 390.161926,598.605225 
	C385.504456,587.546265 380.634491,576.288147 372.741882,566.583252 
	C368.352509,561.185974 362.970764,558.766663 357.324310,556.004700 
	C357.438263,545.246338 357.552185,534.487976 357.875183,523.366699 
z"/>
<path fill="#E9E7DF" opacity="1.000000" stroke="none" 
	d="
M357.241333,556.432739 
	C362.970764,558.766663 368.352509,561.185974 372.741882,566.583252 
	C380.634491,576.288147 385.504456,587.546265 390.161926,598.605225 
	C393.892822,607.464111 397.766815,616.636475 398.352966,627.003357 
	C399.074493,639.764648 402.552551,652.351379 404.433838,665.073486 
	C405.398376,671.596313 405.517792,678.247498 405.901428,684.847534 
	C405.938202,685.480042 405.136932,686.161316 404.348633,686.914429 
	C390.517365,670.576782 380.802521,651.992371 373.148071,632.331543 
	C364.565247,610.286072 359.240570,587.449829 357.981537,563.744934 
	C357.859222,561.442139 357.439850,559.155090 357.241333,556.432739 
z"/>
<path fill="#E9E7DF" opacity="1.000000" stroke="none" 
	d="
M261.029602,272.079010 
	C257.066681,275.314148 252.891312,278.323914 249.177750,281.823639 
	C233.634979,296.471466 224.192612,314.024689 225.073715,335.914948 
	C225.616714,349.405243 229.919220,362.003784 236.222046,374.417603 
	C234.340439,375.766418 232.503784,377.083038 230.309219,378.656219 
	C223.235229,370.885742 217.667740,362.197449 213.501480,352.687408 
	C201.421967,325.114258 208.661087,289.096252 230.494614,268.259552 
	C239.159073,259.990692 249.238937,253.704208 260.588379,249.114105 
	C261.020538,256.987610 261.025055,264.533295 261.029602,272.079010 
z"/>
<path fill="#E7E5DE" opacity="1.000000" stroke="none" 
	d="
M455.004181,236.187057 
	C461.028961,236.133179 467.053741,236.079300 473.540710,236.500488 
	C474.373291,238.731720 474.492065,240.589096 475.151611,242.228989 
	C486.077332,269.395599 497.013489,296.558502 508.117554,323.652435 
	C509.611267,327.297058 512.027893,330.563385 514.020630,334.456665 
	C514.342407,338.270508 514.660706,341.632629 514.979004,344.994720 
	C514.949036,355.686768 514.919067,366.378784 514.452820,377.516418 
	C512.505493,375.944489 510.476379,374.134125 509.572571,371.873749 
	C505.514587,361.725189 501.785187,351.445435 497.921326,341.219055 
	C489.549561,319.061951 481.224243,296.886749 472.673401,274.798920 
	C472.054626,273.200500 469.765533,272.248718 468.170044,270.537170 
	C468.087006,266.068268 468.087006,262.058472 468.087006,258.108185 
	C465.589417,257.983246 463.796478,257.893555 462.001648,257.416382 
	C460.961487,253.937088 459.922882,250.845398 458.885071,247.753448 
	C457.591064,243.898102 456.297791,240.042526 455.004181,236.187057 
z"/>
<path fill="#DBD9D2" opacity="1.000000" stroke="none" 
	d="
M514.780029,506.572937 
	C513.424072,505.755829 511.554840,504.697540 511.012299,503.168549 
	C499.403381,470.450104 487.974426,437.667877 476.432434,404.925537 
	C473.452942,396.473328 470.209076,388.114288 467.337708,379.049255 
	C467.758331,369.248199 467.927917,360.110352 468.445709,351.029358 
	C469.869507,352.253143 471.389038,353.237366 471.955597,354.613800 
	C484.719727,385.624908 497.338470,416.695923 510.165222,447.680939 
	C510.895538,449.445129 513.166870,450.571411 514.721069,451.994537 
	C514.775574,470.033875 514.830139,488.073242 514.780029,506.572937 
z"/>
<path fill="#E1DFD7" opacity="1.000000" stroke="none" 
	d="
M514.805176,451.532959 
	C513.166870,450.571411 510.895538,449.445129 510.165222,447.680939 
	C497.338470,416.695923 484.719727,385.624908 471.955597,354.613800 
	C471.389038,353.237366 469.869507,352.253143 468.422943,350.571594 
	C468.029633,346.359863 468.007263,342.662781 468.030273,338.501129 
	C468.142822,326.356598 468.209991,314.676697 468.633057,303.010986 
	C470.667297,305.879913 472.779297,308.567078 473.957031,311.615234 
	C486.211914,343.332703 498.281219,375.121918 510.562225,406.829163 
	C511.210999,408.504150 513.300354,409.621124 514.719116,410.997864 
	C514.775818,424.355713 514.832520,437.713562 514.805176,451.532959 
z"/>
<path fill="#E4E2DA" opacity="1.000000" stroke="none" 
	d="
M643.998047,320.357239 
	C626.382263,318.748932 608.781311,318.138367 591.212463,320.962524 
	C584.756226,322.000366 578.279602,322.911682 571.339539,323.434326 
	C569.717041,316.028015 568.658020,309.068665 571.377625,301.963959 
	C581.196411,300.861816 590.637207,299.841888 600.094543,299.010773 
	C625.260925,296.799194 650.196777,298.901276 674.992920,303.550720 
	C673.814331,305.176453 672.888123,307.009125 671.440308,307.634674 
	C663.773804,310.946930 655.944519,313.880707 648.250061,317.131348 
	C646.661865,317.802277 645.406738,319.261414 643.998047,320.357239 
z"/>
<path fill="#ECEAE2" opacity="1.000000" stroke="none" 
	d="
M514.017212,334.004883 
	C512.027893,330.563385 509.611267,327.297058 508.117554,323.652435 
	C497.013489,296.558502 486.077332,269.395599 475.151611,242.228989 
	C474.492065,240.589096 474.373291,238.731720 474.003113,236.580353 
	C482.361755,236.130539 490.720154,236.075928 499.541412,236.101227 
	C500.120514,238.359055 499.696564,240.747879 500.449707,242.677170 
	C503.197723,249.716476 506.202240,256.666260 509.406281,263.511108 
	C510.511200,265.871552 512.482117,267.826569 514.496216,270.443176 
	C515.019531,285.920319 515.103943,300.921143 514.875000,316.209717 
	C514.380127,322.333282 514.198669,328.169067 514.017212,334.004883 
z"/>
<path fill="#E4E2DA" opacity="1.000000" stroke="none" 
	d="
M514.805115,410.536438 
	C513.300354,409.621124 511.210999,408.504150 510.562225,406.829163 
	C498.281219,375.121918 486.211914,343.332703 473.957031,311.615234 
	C472.779297,308.567078 470.667297,305.879913 468.547363,302.549469 
	C468.154846,291.714600 468.203949,281.355438 468.253052,270.996277 
	C469.765533,272.248718 472.054626,273.200500 472.673401,274.798920 
	C481.224243,296.886749 489.549561,319.061951 497.921326,341.219055 
	C501.785187,351.445435 505.514587,361.725189 509.572571,371.873749 
	C510.476379,374.134125 512.505493,375.944489 514.366699,377.977478 
	C514.774963,388.686920 514.833069,399.380951 514.805115,410.536438 
z"/>
<path fill="#ECEAE2" opacity="1.000000" stroke="none" 
	d="
M490.952911,733.928101 
	C477.944366,733.940491 464.935791,733.952820 451.458496,733.984741 
	C438.581573,734.004211 426.173340,734.004211 413.477875,734.004211 
	C413.477875,731.252380 413.477875,729.000305 413.477875,726.926697 
	C421.030579,725.964722 428.611938,724.999084 436.596558,724.016724 
	C441.564362,721.538391 446.128906,719.076782 451.145599,716.157837 
	C456.651581,710.685303 462.760681,706.444519 464.383331,698.542114 
	C465.516907,696.267029 466.347504,694.138977 467.514893,692.062927 
	C469.207733,693.685608 470.860229,695.087280 471.868683,696.856201 
	C476.274567,704.584839 480.613525,712.357422 484.733582,720.241089 
	C487.051117,724.675659 488.895416,729.357605 490.952911,733.928101 
z"/>
<path fill="#E9E7DF" opacity="1.000000" stroke="none" 
	d="
M644.403564,320.565552 
	C645.406738,319.261414 646.661865,317.802277 648.250061,317.131348 
	C655.944519,313.880707 663.773804,310.946930 671.440308,307.634674 
	C672.888123,307.009125 673.814331,305.176453 675.403015,303.486328 
	C680.247803,303.723267 684.670898,304.374664 689.093872,305.026062 
	C689.397034,306.241943 689.398132,307.670563 690.071106,308.625854 
	C691.197327,310.224579 692.549133,312.382324 694.169312,312.764648 
	C697.475037,313.544678 696.855774,310.521942 697.097778,308.102234 
	C706.970276,310.546387 716.809326,313.427856 726.830200,316.631958 
	C724.015625,320.795410 721.086670,324.691498 718.001831,328.459930 
	C715.419312,331.614807 712.654541,334.620605 709.905762,338.062561 
	C693.763062,330.909515 677.029480,325.437256 659.495850,322.561218 
	C654.633362,321.763611 649.706421,321.358856 644.403564,320.565552 
z"/>
<path fill="#E9E7DF" opacity="1.000000" stroke="none" 
	d="
M726.653320,740.170654 
	C728.736877,742.659973 730.335449,745.285400 732.229736,747.676697 
	C735.358765,751.626587 738.678650,755.425293 741.957520,759.638428 
	C728.252197,765.625488 714.507385,771.261841 700.375977,776.488586 
	C699.013245,774.228516 698.072998,772.357971 697.053833,770.531494 
	C694.391724,765.760864 691.695129,761.009521 689.012207,756.250549 
	C701.441895,750.900879 713.871582,745.551208 726.653320,740.170654 
z"/>
<path fill="#DBD9D2" opacity="1.000000" stroke="none" 
	d="
M571.007141,302.132263 
	C568.658020,309.068665 569.717041,316.028015 570.938538,323.384491 
	C558.929871,327.509949 546.849365,331.238861 534.374329,334.583252 
	C532.952942,326.376007 531.926208,318.553284 531.171814,310.477539 
	C533.830750,309.615448 536.195068,308.893646 538.607727,308.416870 
	C549.399963,306.283813 560.206055,304.220642 571.007141,302.132263 
z"/>
<path fill="#E4E2DA" opacity="1.000000" stroke="none" 
	d="
M261.393494,272.027161 
	C261.025055,264.533295 261.020538,256.987610 260.943665,248.998505 
	C269.984711,245.396240 279.098145,242.237381 288.672882,239.534866 
	C289.420654,246.952286 289.707123,253.913345 289.993561,260.874420 
	C280.581512,264.574707 271.169434,268.275024 261.393494,272.027161 
z"/>
<path fill="#DBD9D2" opacity="1.000000" stroke="none" 
	d="
M290.413147,260.922485 
	C289.707123,253.913345 289.420654,246.952286 289.062622,239.590759 
	C299.673676,238.133408 310.356323,237.076523 321.502075,235.969299 
	C318.873352,243.260147 315.781525,250.601303 312.498535,258.179871 
	C305.149170,259.268372 297.990936,260.119446 290.413147,260.922485 
z"/>
<path fill="#E1DFD7" opacity="1.000000" stroke="none" 
	d="
M688.635925,756.258545 
	C691.695129,761.009521 694.391724,765.760864 697.053833,770.531494 
	C698.072998,772.357971 699.013245,774.228516 699.998657,776.438049 
	C695.005066,778.208130 690.002075,779.619202 684.612183,781.056396 
	C674.879639,777.147827 666.187927,772.204590 659.061646,764.450256 
	C668.769958,761.495422 678.514771,758.880981 688.635925,756.258545 
z"/>
<path fill="#D2D0C9" opacity="1.000000" stroke="none" 
	d="
M530.899414,310.730591 
	C531.926208,318.553284 532.952942,326.376007 533.994141,334.615051 
	C527.876221,338.251526 521.743835,341.471649 515.295227,344.843262 
	C514.660706,341.632629 514.342407,338.270508 514.020630,334.456665 
	C514.198669,328.169067 514.380127,322.333282 515.193848,316.051514 
	C520.850647,313.980560 525.875000,312.355591 530.899414,310.730591 
z"/>
<path fill="#DDDCD4" opacity="1.000000" stroke="none" 
	d="
M424.111786,258.033966 
	C421.103973,250.914825 418.096191,243.795685 415.057281,236.306458 
	C421.377655,235.967819 427.729156,235.999283 434.553467,236.481628 
	C435.376617,238.010437 435.675293,239.108505 436.085968,240.162933 
	C438.377655,246.046951 440.696411,251.920441 442.543732,257.879608 
	C436.091614,257.985809 430.101715,258.009888 424.111786,258.033966 
z"/>
<path fill="#E4E2DA" opacity="1.000000" stroke="none" 
	d="
M443.005920,257.797516 
	C440.696411,251.920441 438.377655,246.046951 436.085968,240.162933 
	C435.675293,239.108505 435.376617,238.010437 435.015930,236.562958 
	C441.363312,236.138229 447.721039,236.083038 454.541473,236.107452 
	C456.297791,240.042526 457.591064,243.898102 458.885071,247.753448 
	C459.922882,250.845398 460.961487,253.937088 461.539215,257.496735 
	C455.054443,257.908905 449.030182,257.853210 443.005920,257.797516 
z"/>

<path fill="#D8D6CF" opacity="1.000000" stroke="none" 
	d="
M468.290466,619.009644 
	C468.241608,590.299011 468.192780,561.588440 468.254089,532.417969 
	C470.587921,537.188599 472.998810,542.348572 475.003845,547.661621 
	C485.136383,574.511475 495.058960,601.441040 505.295074,628.251038 
	C508.127777,635.670349 511.782776,642.775696 514.982605,650.870789 
	C514.906128,661.842529 514.937195,671.968628 514.903076,682.094543 
	C514.812195,709.077698 537.217590,726.625671 561.621643,725.865540 
	C563.429871,728.236511 565.238037,730.607483 566.577515,733.431702 
	C554.735840,733.824524 543.362915,733.764099 531.976074,733.350830 
	C531.408386,731.634399 531.067444,730.128662 530.266541,728.930237 
	C524.658752,720.539246 518.425659,712.516968 513.404968,703.794067 
	C505.398621,689.883606 497.937988,675.642212 490.697601,661.312866 
	C484.118927,648.293152 478.190674,634.945801 471.817719,621.819580 
	C471.225433,620.599670 469.493347,619.933105 468.290466,619.009644 
z"/>

<path fill="#D2D0C9" opacity="1.000000" stroke="none" 
	d="
M370.463257,460.022461 
	C376.374573,446.428711 382.361572,432.655121 389.284607,419.369232 
	C393.302094,411.659271 398.823730,404.733154 404.283203,397.296875 
	C405.918091,398.726196 407.670593,400.239929 407.837189,401.911743 
	C408.769867,411.269592 409.598022,420.655884 409.923889,430.051178 
	C410.268921,440.000336 410.011841,449.970367 410.017761,459.931305 
	C396.989105,459.969971 383.960480,460.008606 370.463257,460.022461 
z"/>
<path fill="#CBC9C2" opacity="1.000000" stroke="none" 
	d="
M410.475555,459.951019 
	C410.011841,449.970367 410.268921,440.000336 409.923889,430.051178 
	C409.598022,420.655884 408.769867,411.269592 407.837189,401.911743 
	C407.670593,400.239929 405.918091,398.726196 404.545898,397.075195 
	C408.169434,392.066833 412.144989,387.122681 416.423645,382.060211 
	C417.802338,383.401306 419.302582,384.708923 419.886841,386.343903 
	C425.000336,400.653717 429.950256,415.022034 434.577057,429.668365 
	C429.830963,439.962036 425.456512,449.960297 421.082031,459.958588 
	C417.699127,459.962646 414.316254,459.966675 410.475555,459.951019 
z"/>
<path fill="#D5D3CC" opacity="1.000000" stroke="none" 
	d="
M409.125793,512.043579 
	C408.738678,525.723572 408.351562,539.403503 407.883667,553.546631 
	C406.407959,553.078369 404.374939,552.466675 403.722260,551.163513 
	C399.640106,543.013367 395.843018,534.719727 391.996918,526.452454 
	C388.523560,518.986328 384.718445,511.642395 381.780670,503.968536 
	C379.032532,496.790039 377.231018,489.249146 375.021484,481.468262 
	C383.044861,481.062225 391.059692,481.055695 399.539795,481.480347 
	C401.451355,488.806183 402.618347,495.776733 404.462952,502.563080 
	C405.369781,505.899261 407.531799,508.894196 409.125793,512.043579 
z"/>

<path fill="#D2D0C9" opacity="1.000000" stroke="none" 
	d="
M375.012543,257.582458 
	C365.319763,257.965668 355.623871,257.969116 345.458649,257.973633 
	C347.766907,250.796585 350.544525,243.618454 354.062744,236.234253 
	C358.515411,236.013474 362.227509,235.998749 365.939575,235.984039 
	C368.962860,243.056946 371.986145,250.129837 375.012543,257.582458 
z"/>

<path fill="#D2D0C9" opacity="1.000000" stroke="none" 
	d="
M409.353333,511.712341 
	C407.531799,508.894196 405.369781,505.899261 404.462952,502.563080 
	C402.618347,495.776733 401.451355,488.806183 400.008606,481.503845 
	C404.479218,481.208588 408.946259,481.321075 413.709229,481.724030 
	C412.530334,491.803375 411.055603,501.592255 409.353333,511.712341 
z"/>
<path fill="#CBC9C2" opacity="1.000000" stroke="none" 
	d="
M455.952698,346.458130 
	C459.753052,343.775299 463.539978,341.472137 467.655914,339.067352 
	C468.007263,342.662781 468.029633,346.359863 468.074768,350.514709 
	C467.927917,360.110352 467.758331,369.248199 467.299744,378.684906 
	C463.320312,368.268433 459.629791,357.553131 455.952698,346.458130 
z"/>
<path fill="#D5D3CC" opacity="1.000000" stroke="none" 
	d="
M438.725525,665.296570 
	C447.268646,676.035461 455.532623,687.072449 463.938477,698.399353 
	C462.760681,706.444519 456.651581,710.685303 451.303711,715.855103 
	C448.842224,711.683289 445.903687,707.565369 444.665955,702.987488 
	C441.996948,693.115845 440.084381,683.030701 438.136078,672.979797 
	C437.679932,670.626587 438.313934,668.062012 438.725525,665.296570 
z"/>
<path fill="#E1DFD7" opacity="1.000000" stroke="none" 
	d="
M531.976074,733.350830 
	C523.629883,733.770386 515.269836,733.837036 506.439087,733.907959 
	C501.250366,733.931458 496.532318,733.950623 491.383606,733.948975 
	C488.895416,729.357605 487.051117,724.675659 484.733582,720.241089 
	C480.613525,712.357422 476.274567,704.584839 471.868683,696.856201 
	C470.860229,695.087280 469.207733,693.685608 467.514893,692.062927 
	C467.493500,667.984863 467.808929,643.958801 468.207397,619.471191 
	C469.493347,619.933105 471.225433,620.599670 471.817719,621.819580 
	C478.190674,634.945801 484.118927,648.293152 490.697601,661.312866 
	C497.937988,675.642212 505.398621,689.883606 513.404968,703.794067 
	C518.425659,712.516968 524.658752,720.539246 530.266541,728.930237 
	C531.067444,730.128662 531.408386,731.634399 531.976074,733.350830 
z"/>
</svg>